<svg width="48" height="27" viewBox="0 0 48 27" fill="none" xmlns="http://www.w3.org/2000/svg">
<path d="M24.0001 26.5282C21.0636 26.5282 18.0166 25.8591 14.9443 24.54C12.5025 23.4919 10.0386 22.0319 7.62081 20.2016C3.51368 17.0927 0.991658 14.0286 0.886152 13.8991C0.69599 13.6666 0.69599 13.3324 0.886152 13.0993C0.991658 12.9704 3.51368 9.90568 7.62081 6.79675C10.0386 4.96651 12.5025 3.50713 14.9443 2.45839C18.0172 1.13926 21.0636 0.470215 24.0001 0.470215C26.9365 0.470215 29.9835 1.13926 33.0558 2.45839C35.4976 3.5065 37.9615 4.96651 40.3793 6.79675C44.4864 9.90568 47.0084 12.9704 47.114 13.0993C47.3041 13.3318 47.3041 13.666 47.114 13.8991C47.0084 14.028 44.4864 17.0927 40.3793 20.2016C37.9615 22.0319 35.4976 23.4912 33.0558 24.54C29.9829 25.8591 26.9365 26.5282 24.0001 26.5282ZM2.20781 13.4998C3.02659 14.4285 5.26052 16.8343 8.40736 19.2129C10.7411 20.9768 13.114 22.3812 15.4585 23.3857C18.3672 24.6322 21.2411 25.2646 24.0001 25.2646C26.759 25.2646 29.6329 24.6322 32.5416 23.3857C34.8867 22.3806 37.259 20.9768 39.5927 19.2129C42.739 16.8349 44.9735 14.4291 45.7923 13.4998C44.9735 12.5711 42.7396 10.1647 39.5927 7.78673C37.259 6.02283 34.8861 4.61841 32.5416 3.6139C29.6329 2.36742 26.759 1.73502 24.0001 1.73502C21.2411 1.73502 18.3571 2.36931 15.4427 3.62085C13.0951 4.62915 10.7196 6.03673 8.38335 7.80568C5.24409 10.1818 3.02343 12.5743 2.20781 13.4998Z" fill="#FEFCFD"/>
<path d="M24.0001 26.5282C16.8162 26.5282 10.9717 20.6837 10.9717 13.4998C10.9717 6.31597 16.8162 0.471478 24.0001 0.471478C31.1839 0.471478 37.0284 6.31597 37.0284 13.4998C37.0284 20.6837 31.1839 26.5282 24.0001 26.5282ZM24.0001 1.73502C17.513 1.73502 12.2353 7.01281 12.2353 13.4998C12.2353 19.9868 17.513 25.2646 24.0001 25.2646C30.4871 25.2646 35.7649 19.9868 35.7649 13.4998C35.7649 7.01281 30.4871 1.73502 24.0001 1.73502Z" fill="#FEFCFD"/>
<path d="M24.0001 19.3677C20.7641 19.3677 18.1322 16.7351 18.1322 13.4998C18.1322 10.2645 20.7648 7.63195 24.0001 7.63195C24.3488 7.63195 24.6318 7.91498 24.6318 8.26372C24.6318 8.61245 24.3488 8.89548 24.0001 8.89548C21.461 8.89548 19.3957 10.9614 19.3957 13.4998C19.3957 16.0383 21.4616 18.1041 24.0001 18.1041C26.5385 18.1041 28.6044 16.0383 28.6044 13.4998C28.6044 13.1511 28.8874 12.868 29.2362 12.868C29.5849 12.868 29.8679 13.1511 29.8679 13.4998C29.8679 16.7357 27.2353 19.3677 24.0001 19.3677Z" fill="#FEFCFD"/>
</svg>
