<svg width="36" height="36" viewBox="0 0 36 36" fill="none" xmlns="http://www.w3.org/2000/svg">
<path fill-rule="evenodd" clip-rule="evenodd" d="M15.5159 21.1915C13.9317 21.7624 12.1324 23.0562 9.57305 25.0741C11.591 22.5148 12.8848 20.7155 13.4557 19.1313C11.0229 17.7328 6.94406 17.5366 0 17.3236C6.94336 17.1105 11.0222 16.9144 13.4557 15.5159C12.8848 13.9317 11.591 12.1324 9.57305 9.57305C12.1324 11.591 13.9317 12.8848 15.5159 13.4557C16.9144 11.0229 17.1105 6.94406 17.3236 0C17.5366 6.94336 17.7328 11.0222 19.1313 13.4557C20.7155 12.8848 22.5148 11.591 25.0741 9.57305C23.0562 12.1324 21.7624 13.9317 21.1915 15.5159C23.6243 16.9144 27.7031 17.1105 34.6472 17.3236C27.7038 17.5366 23.625 17.7328 21.1915 19.1313C21.7624 20.7155 23.0562 22.5148 25.0741 25.0741C22.5148 23.0562 20.7155 21.7624 19.1313 21.1915C17.7328 23.6243 17.5366 27.7031 17.3236 34.6472C17.1105 27.7038 16.9144 23.625 15.5159 21.1915ZM27.4591 5.26923C29.963 5.34587 30.0255 5.40844 30.1022 7.91227C30.1788 5.40844 30.2414 5.34587 32.7452 5.26923C30.2414 5.19258 30.1788 5.13001 30.1022 2.62618C30.0255 5.13001 29.963 5.19258 27.4591 5.26923ZM35.6625 29.622C29.9384 29.4462 29.7963 29.3042 29.6205 23.58C29.4448 29.3042 29.3027 29.4462 23.5786 29.622C29.3027 29.7977 29.4448 29.9398 29.6205 35.6639C29.7963 29.9398 29.9384 29.7977 35.6625 29.622Z" fill="white"/>
</svg>
