<svg width="114" height="73" viewBox="0 0 114 73" fill="none" xmlns="http://www.w3.org/2000/svg">
<path d="M30.8918 52.346H30.859L30.8264 52.3503C29.7052 52.4983 28.5624 52.5743 27.4016 52.5743C13.0367 52.5743 1.375 40.9063 1.375 26.5371C1.375 12.1679 13.0367 0.5 27.4016 0.5C41.7667 0.5 53.4283 12.166 53.4282 26.5371L53.4283 26.5434L53.4283 26.5443L53.4284 26.5486L53.4285 26.5675C53.4286 26.5847 53.4287 26.6109 53.4286 26.6458C53.4285 26.7157 53.4277 26.8208 53.4253 26.9588C53.4205 27.2348 53.4089 27.6428 53.382 28.166C53.328 29.2125 53.2126 30.7193 52.9663 32.5528C52.4737 36.2214 51.4587 41.189 49.3714 46.391C45.3659 56.3734 37.4239 67.2017 21.628 71.4108C22.5652 70.5288 23.8221 69.2313 25.1272 67.5496C27.7571 64.1607 30.5965 59.1933 31.3899 52.9086L31.4609 52.346H30.8938H30.8918ZM91.3343 52.9085L91.4153 52.2655L90.7728 52.3503C89.6516 52.4983 88.5087 52.5743 87.348 52.5743C72.985 52.5743 61.3214 40.9083 61.3214 26.5371C61.3214 12.166 72.983 0.5 87.348 0.5C101.713 0.5 113.375 12.166 113.375 26.5371L113.375 26.5434L113.375 26.5443L113.375 26.5486L113.375 26.5675C113.375 26.5847 113.375 26.6109 113.375 26.6458C113.375 26.7157 113.374 26.8208 113.372 26.9588C113.367 27.2348 113.355 27.6428 113.328 28.166C113.274 29.2125 113.159 30.7193 112.913 32.5528C112.42 36.2214 111.405 41.189 109.318 46.391C105.312 56.3734 97.3703 67.2017 81.5743 71.4108C82.5115 70.5288 83.7683 69.2313 85.0733 67.5495C87.703 64.1606 90.5419 59.1932 91.3343 52.9085Z" fill="#003366" stroke="#003366"/>
</svg>
